<?xml version="1.0" standalone="no"?>
<!DOCTYPE svg PUBLIC "-//W3C//DTD SVG 20010904//EN"
 "http://www.w3.org/TR/2001/REC-SVG-20010904/DTD/svg10.dtd">
<svg version="1.0" xmlns="http://www.w3.org/2000/svg"
 width="1264.000000pt" height="1264.000000pt" viewBox="0 0 1264.000000 1264.000000"
 preserveAspectRatio="xMidYMid meet">
<metadata>
Created by potrace 1.14, written by Peter Selinger 2001-2017
</metadata>
<g transform="translate(0.000000,1264.000000) scale(0.100000,-0.100000)"
fill="#000000" stroke="none">
<path d="M6230 12428 c-19 -11 -48 -29 -65 -38 -16 -9 -75 -43 -130 -75 -55
-32 -113 -66 -130 -75 -16 -10 -91 -52 -165 -95 -452 -262 -499 -289 -575
-332 -33 -19 -67 -38 -75 -44 -17 -11 -413 -239 -480 -277 -25 -14 -85 -48
-135 -77 -49 -29 -106 -62 -125 -73 -19 -11 -62 -35 -95 -54 -33 -19 -136 -79
-230 -133 -93 -54 -222 -128 -285 -165 -63 -37 -221 -128 -350 -202 -129 -75
-408 -236 -620 -358 -212 -122 -401 -231 -420 -242 -19 -11 -109 -63 -200
-116 -91 -52 -250 -144 -355 -205 -104 -60 -203 -117 -220 -127 -16 -9 -72
-41 -123 -71 -52 -30 -115 -66 -140 -80 -26 -15 -117 -67 -202 -117 l-155 -90
0 -2318 c-1 -2025 -3 -2319 -15 -2315 -8 2 -27 4 -42 5 -14 0 -24 4 -21 8 4 7
-15 12 -44 11 -7 -1 -10 3 -7 8 5 9 -9 13 -35 10 -7 -2 -10 2 -6 8 3 6 2 11
-3 11 -5 0 -14 -10 -20 -23 -10 -21 -10 -21 -9 5 1 15 -2 27 -6 27 -4 0 -15 7
-23 16 -16 16 -39 11 -28 -6 3 -5 10 -6 16 -3 7 5 8 2 3 -6 -5 -9 -4 -11 3 -6
8 5 10 2 6 -8 -5 -14 -8 -14 -21 -1 -8 9 -20 12 -26 8 -7 -4 -8 0 -4 11 4 11
3 15 -4 10 -6 -4 -15 0 -20 7 -6 11 -10 11 -19 1 -5 -6 -7 -10 -3 -7 3 3 17
-5 30 -17 13 -12 23 -18 23 -14 0 4 8 0 17 -9 15 -16 18 -15 35 7 l19 23 -11
-23 c-6 -13 -10 -25 -8 -27 12 -10 88 -44 88 -39 0 4 7 0 17 -7 9 -8 17 -13
17 -11 1 2 14 -1 29 -7 16 -6 34 -11 41 -11 8 0 19 -7 26 -15 16 -19 24 -20
-105 16 -60 17 -120 32 -132 33 -11 0 -19 4 -16 8 2 5 -1 8 -6 8 -6 0 -11 -6
-11 -12 0 -7 -7 -2 -16 10 -18 26 -30 28 -51 7 -21 -21 -39 -13 -35 15 1 13
-1 21 -4 17 -4 -4 -14 -1 -21 5 -8 7 -30 13 -48 15 -28 2 -33 -1 -32 -17 1
-11 6 -20 13 -20 6 0 24 -6 40 -14 68 -33 104 -47 159 -63 89 -26 196 -54 219
-59 16 -2 36 -9 45 -15 21 -13 -59 -4 -154 17 -38 8 -83 18 -100 20 -37 7
-138 32 -161 41 -13 5 -15 3 -10 -8 4 -8 1 -6 -8 5 -10 12 -29 19 -55 20 -21
0 -37 4 -35 8 5 7 -27 13 -48 9 -5 0 -8 4 -8 10 0 23 -23 2 -26 -24 -2 -24 0
-27 21 -23 14 3 24 0 22 -6 -1 -6 4 -13 11 -15 7 -3 12 3 13 14 0 15 2 15 9
-3 6 -16 23 -25 62 -32 29 -6 91 -20 138 -31 47 -11 101 -22 120 -26 19 -3 46
-8 60 -10 56 -10 106 -17 122 -17 10 1 21 -5 25 -11 4 -7 8 -303 8 -659 0
-355 2 -649 5 -651 4 -4 453 -265 550 -320 122 -68 198 -113 220 -127 14 -10
50 -31 80 -47 30 -17 141 -80 245 -140 206 -120 748 -433 805 -465 19 -11 141
-81 270 -156 129 -74 359 -207 510 -294 151 -87 282 -162 290 -167 8 -6 125
-73 260 -151 135 -78 252 -146 260 -151 77 -46 172 -99 180 -99 6 0 10 -4 10
-10 0 -5 4 -10 9 -10 6 0 76 -39 158 -86 81 -47 166 -96 188 -109 22 -12 112
-64 200 -115 88 -51 176 -102 195 -113 51 -28 203 -116 220 -127 8 -5 53 -31
99 -57 46 -26 107 -61 136 -78 28 -16 136 -78 239 -138 l186 -107 203 117
c111 64 227 131 257 148 30 17 132 76 225 130 258 149 664 384 715 413 25 14
144 82 265 152 689 400 969 560 977 560 4 0 8 5 8 10 0 6 4 10 9 10 5 0 91 48
192 106 101 59 204 118 229 132 84 47 105 59 255 147 83 48 168 97 190 109 22
13 185 107 362 209 177 103 337 195 355 205 18 11 121 70 228 132 107 62 227
131 265 153 62 35 294 170 416 241 24 15 62 35 85 47 23 11 50 28 60 37 18 18
19 46 18 810 0 436 2 796 5 801 3 5 56 12 116 16 97 6 162 11 188 14 5 1 5 6
1 12 -4 8 -9 7 -16 -2 -8 -11 -9 -11 -5 1 2 8 12 13 22 12 16 -3 17 -2 5 13
-9 11 -16 13 -24 5 -5 -5 -15 -10 -21 -10 -5 0 -2 5 7 11 9 5 16 15 14 22 -1
6 -1 8 2 4 2 -4 10 -3 18 4 11 9 14 9 14 0 0 -7 5 -9 10 -6 6 3 10 0 10 -7 0
-9 3 -9 10 2 5 8 10 20 10 25 0 6 -5 3 -10 -5 -5 -8 -10 -10 -10 -4 0 10 -45
13 -65 3 -6 -2 -31 -4 -57 -4 -27 0 -48 -2 -48 -5 0 -3 -22 -4 -50 -3 -27 1
-52 -2 -55 -7 -4 -6 -12 -7 -18 -3 -7 4 -21 8 -32 8 -20 0 -20 7 -20 2215 -1
1218 -4 2221 -9 2228 -4 6 -11 12 -15 12 -4 0 -75 39 -157 86 -82 48 -223 129
-314 182 -418 241 -524 302 -527 302 -3 0 -24 14 -48 30 -24 17 -46 30 -48 30
-3 0 -103 57 -223 126 -121 70 -232 134 -249 144 -16 9 -65 38 -108 64 -43 25
-81 46 -83 46 -2 0 -21 11 -42 23 -20 13 -57 35 -82 49 -41 23 -213 122 -565
326 -71 41 -143 83 -160 92 -16 10 -145 84 -285 165 -140 81 -268 155 -285
165 -181 104 -394 227 -500 288 -71 41 -247 143 -390 225 -143 82 -327 189
-410 237 -292 169 -816 470 -818 470 -1 0 -18 -10 -37 -22z m5630 -7493 c0 -2
-6 -5 -13 -8 -8 -3 -14 1 -14 8 0 7 6 11 14 8 7 -3 13 -6 13 -8z m-45 -16 c-6
-16 -4 -20 6 -14 8 5 11 4 6 0 -4 -5 -16 -9 -26 -10 -18 -1 -18 0 -3 21 21 29
25 30 17 3z m35 -29 c0 -5 -5 -10 -11 -10 -5 0 -7 5 -4 10 3 6 8 10 11 10 2 0
4 -4 4 -10z m-11299 -113 c8 -13 5 -15 -10 -12 -21 4 -61 23 -61 30 0 11 64
-4 71 -18z m256 -2 c0 -8 -4 -12 -9 -9 -5 3 -6 10 -3 15 9 13 12 11 12 -6z
m-157 -35 c0 -5 -4 -10 -10 -10 -5 0 -10 5 -10 10 0 6 5 10 10 10 6 0 10 -4
10 -10z m-262 -16 c8 -2 17 -6 20 -10 4 -4 0 -4 -8 -2 -8 3 -22 2 -30 -3 -11
-5 -16 -2 -16 11 0 10 5 16 11 12 5 -4 16 -7 23 -8z m82 -38 c0 -3 -4 -8 -10
-11 -5 -3 -10 -1 -10 4 0 6 5 11 10 11 6 0 10 -2 10 -4z"/>
<path d="M12144 4979 c-3 -6 -2 -15 4 -21 6 -6 12 -6 17 3 6 8 4 10 -5 4 -10
-6 -12 -4 -7 8 7 19 2 23 -9 6z"/>
<path d="M12170 4986 c0 -2 7 -7 16 -10 8 -3 12 -2 9 4 -6 10 -25 14 -25 6z"/>
<path d="M12010 4970 c-6 -4 -20 -6 -29 -3 -20 5 -43 -38 -35 -64 5 -15 4 -16
-5 -3 -8 11 -11 12 -11 2 0 -7 -4 -10 -10 -7 -5 3 -10 2 -10 -3 0 -5 14 -9 30
-8 20 0 29 5 25 13 -2 7 1 13 7 13 6 0 8 3 5 7 -4 3 -1 13 6 21 10 13 9 15 -6
9 -10 -4 -16 -3 -12 2 3 6 14 9 25 8 14 -1 16 -4 8 -14 -8 -10 -7 -13 3 -13
11 0 11 -2 0 -9 -8 -5 -16 -17 -17 -26 -2 -11 1 -13 9 -7 7 4 24 8 39 7 22 -1
25 2 18 16 -9 17 -4 29 12 29 5 0 7 -4 4 -8 -2 -4 0 -14 6 -22 8 -12 9 -12 4
3 -3 10 0 17 8 17 7 0 19 6 25 14 10 12 8 17 -9 26 -22 12 -44 5 -35 -11 4 -5
1 -9 -4 -9 -6 0 -11 4 -11 9 0 13 -25 20 -40 11z m28 -38 c-7 -8 -12 -18 -10
-21 2 -3 -1 -7 -7 -9 -9 -3 -9 9 -2 62 0 5 8 3 16 -4 12 -10 13 -15 3 -28z
m57 32 c13 -5 14 -8 3 -15 -19 -12 -25 -11 -25 6 0 17 0 17 22 9z"/>
<path d="M12215 4971 c-3 -5 -2 -12 3 -15 5 -3 9 1 9 9 0 17 -3 19 -12 6z"/>
<path d="M12175 4950 c-4 -6 1 -7 11 -3 10 4 15 2 11 -4 -3 -5 0 -10 8 -10 11
0 12 4 4 14 -14 15 -26 17 -34 3z"/>
<path d="M12119 4933 c-13 -16 -12 -17 4 -4 15 12 17 11 18 -10 1 -19 2 -20 6
-5 7 27 -11 40 -28 19z"/>
<path d="M11903 4923 c9 -9 20 -13 24 -9 4 4 1 11 -7 16 -25 16 -35 11 -17 -7z"/>
<path d="M12255 4929 c-4 -6 -5 -12 -2 -15 2 -3 7 2 10 11 7 17 1 20 -8 4z"/>
<path d="M12098 4908 c5 -5 16 -8 23 -6 8 3 3 7 -10 11 -17 4 -21 3 -13 -5z"/>
<path d="M573 4895 c0 -8 4 -12 9 -9 5 3 6 10 3 15 -9 13 -12 11 -12 -6z"/>
<path d="M613 4865 c0 -8 4 -12 9 -9 5 3 6 10 3 15 -9 13 -12 11 -12 -6z"/>
<path d="M655 4860 c3 -5 8 -10 11 -10 2 0 4 5 4 10 0 6 -5 10 -11 10 -5 0 -7
-4 -4 -10z"/>
<path d="M441 4836 c-9 -10 -9 -16 -1 -21 6 -4 14 -4 17 -1 4 3 1 6 -7 6 -10
0 -10 3 0 15 7 8 10 15 7 15 -2 0 -10 -6 -16 -14z"/>
<path d="M410 4806 c0 -2 7 -7 16 -10 8 -3 12 -2 9 4 -6 10 -25 14 -25 6z"/>
<path d="M176 4778 c3 -4 11 -5 19 -1 21 7 19 12 -4 10 -11 0 -18 -5 -15 -9z"/>
<path d="M220 4771 c0 -7 -5 -9 -12 -5 -7 5 -8 3 -3 -5 5 -9 10 -10 18 -2 6 6
8 14 4 18 -4 3 -7 1 -7 -6z"/>
<path d="M585 4769 c-4 -6 -5 -13 -2 -16 7 -7 27 6 27 18 0 12 -17 12 -25 -2z"/>
<path d="M236 4753 c-6 -14 -5 -15 5 -6 7 7 10 15 7 18 -3 3 -9 -2 -12 -12z"/>
<path d="M320 4760 c12 -10 11 -11 -7 -7 -14 3 -20 1 -17 -7 3 -7 -2 -13 -11
-13 -10 0 -14 6 -10 15 5 12 3 13 -10 2 -12 -10 -13 -15 -3 -21 6 -4 16 -5 20
-3 4 3 8 0 8 -7 0 -7 6 -5 13 6 11 14 16 15 22 5 5 -8 4 -11 -2 -7 -5 3 -10
-1 -10 -9 0 -8 5 -13 11 -11 16 6 12 60 -4 65 -13 3 -13 2 0 -8z"/>
</g>
</svg>
